<svg width="1885" height="649" viewBox="0 0 1885 649" fill="none" xmlns="http://www.w3.org/2000/svg">
<g filter="url(#filter0_di_459_77)">
<path d="M224.5 160.5L181 412C317 292 438 333.5 530 342.5L579.5 113L496 160.5L472 278.5H275L308 113L224.5 160.5Z" fill="url(#paint0_linear_459_77)"/>
</g>
<g filter="url(#filter1_di_459_77)">
<path d="M164 504L158.5 536L235.5 493L241.5 459.5L203 480.5L164 504Z" fill="url(#paint1_radial_459_77)"/>
<path d="M420.5 537L447 409C275 386.5 181 466 87 537C120.2 487.8 217.5 401 258 382.5C337.6 337.7 432 351.5 525.5 361.5C642.5 370 656 258 578.5 234C717 242 705 435.5 541 487C504.5 501 476 503 420.5 537Z" fill="url(#paint2_radial_459_77)"/>
</g>
<g filter="url(#filter2_i_459_77)">
<path d="M422.5 532.5L447 409C275 386.5 181 466 87 537C120.2 487.8 217.5 401 258 382.5C337.6 337.7 432 351.5 525.5 361.5C642.5 370 656 258 578.5 234C658.5 249.5 664 305.5 655 333.5C647.797 355.908 622.5 418.5 513 415.5C505.5 512 472 490 422.5 532.5Z" fill="url(#paint3_linear_459_77)"/>
</g>
<path d="M1353.73 301.402L1361.69 314.192H1339.29L1339.28 314.195L1339.28 314.192H1339.17L1339.23 314.109L1290.74 234.984L1242.25 314.109L1242.31 314.192H1242.2L1242.2 314.195L1242.2 314.192H1219.79L1227.75 301.403L1281.3 214.031L1281.34 214.059L1281.29 214.004H1300.16L1300.16 214L1353.73 301.402ZM774 254.004H857V214.004H877V314.004H857V274.004H774V314.004H754V214.004H774V254.004ZM973 314.004H953V214.004H973V314.004ZM1066 272.61L1140.5 214.004L1169.5 214.504L1114 259.004L1171.5 313.504H1145L1099.5 270.004L1066 295.621V314.004H1046V214.004H1066V272.61ZM1509.5 214.004C1526.5 215.004 1537.5 232.004 1537.5 247.504C1537.5 265.504 1525.5 283.504 1502.5 281.004L1537.5 313.504H1509.5L1455 262.504L1503.5 263.504C1508.5 263.004 1517.5 258.004 1517 247.504C1516.52 237.504 1510.5 234.004 1502.77 233.004H1438V314.004H1418V214.004H1509.5ZM1623 314.004H1603V214.004H1623V314.004Z" fill="#D9D9D9"/>
<path d="M1180 416.504L1206.5 359.004H1220.5L1246 416.504L1272.5 359.004H1286.5L1252 435.004H1238.5L1213.24 375.004L1186 435.004H1174.5L1139 359.004H1154.5L1180 416.504ZM1426.5 359.504L1462.5 420.004L1498 359.504H1513L1468 435.004H1456.5L1411 359.004L1426.5 359.504ZM1405 434.004H1390L1354.5 373.504L1318.5 434.004L1303 434.504L1348.5 358.504H1360L1405 434.004ZM1626.5 434.004H1548.5V422.004H1619.5L1626.5 434.004ZM1608.5 402.504H1548.5V390.004H1615.5L1608.5 402.504ZM1619 371.504H1548.5V358.504H1626.5L1619 371.504Z" fill="#D9D9D9"/>
<path fill-rule="evenodd" clip-rule="evenodd" d="M1019 406.504C1021.5 418.504 1031 421.902 1052.5 421.504C1072 421.143 1082 419.504 1084 405.504V359.004H1098V406.004C1099 432.504 1074.5 435.504 1051.5 435.504C1026.08 435.504 1007.1 428.142 1005.16 409.004H1005V359.004H1019V406.504ZM825.895 359.004H826V359.008C838.335 359.521 842.5 372.232 842.5 378.004C842.5 386.004 840.5 391.504 835 395.504C838.5 397.004 844.382 401.01 844 414.004C843.559 428.989 831.851 433.871 826 434.818V435.004H750V359.004H824.5C824.976 358.986 825.441 358.988 825.895 359.004ZM902 421.004H963V435.004H888V359.004H902V421.004ZM764 421.004H824C826.5 421.004 830.5 417.504 830.5 412.504C830.5 406.188 827.215 403.193 824.282 403.013L824 403.004H764V421.004ZM764 389.004H824C828 388.004 829 384.545 829 381.004C829 376.375 828.531 374.615 824.865 373.146L824.5 373.004H764V389.004Z" fill="#006FFE"/>
<defs>
<filter id="filter0_di_459_77" x="159.4" y="91.4" width="441.7" height="342.2" filterUnits="userSpaceOnUse" color-interpolation-filters="sRGB">
<feFlood flood-opacity="0" result="BackgroundImageFix"/>
<feColorMatrix in="SourceAlpha" type="matrix" values="0 0 0 0 0 0 0 0 0 0 0 0 0 0 0 0 0 0 127 0" result="hardAlpha"/>
<feOffset/>
<feGaussianBlur stdDeviation="10.8"/>
<feComposite in2="hardAlpha" operator="out"/>
<feColorMatrix type="matrix" values="0 0 0 0 0 0 0 0 0 0.2 0 0 0 0 1 0 0 0 0.86 0"/>
<feBlend mode="normal" in2="BackgroundImageFix" result="effect1_dropShadow_459_77"/>
<feBlend mode="normal" in="SourceGraphic" in2="effect1_dropShadow_459_77" result="shape"/>
<feColorMatrix in="SourceAlpha" type="matrix" values="0 0 0 0 0 0 0 0 0 0 0 0 0 0 0 0 0 0 127 0" result="hardAlpha"/>
<feOffset dx="4" dy="-6"/>
<feGaussianBlur stdDeviation="0.75"/>
<feComposite in2="hardAlpha" operator="arithmetic" k2="-1" k3="1"/>
<feColorMatrix type="matrix" values="0 0 0 0 1 0 0 0 0 1 0 0 0 0 1 0 0 0 1 0"/>
<feBlend mode="normal" in2="shape" result="effect2_innerShadow_459_77"/>
</filter>
<filter id="filter1_di_459_77" x="37.4" y="184.4" width="686.147" height="402.2" filterUnits="userSpaceOnUse" color-interpolation-filters="sRGB">
<feFlood flood-opacity="0" result="BackgroundImageFix"/>
<feColorMatrix in="SourceAlpha" type="matrix" values="0 0 0 0 0 0 0 0 0 0 0 0 0 0 0 0 0 0 127 0" result="hardAlpha"/>
<feOffset/>
<feGaussianBlur stdDeviation="24.8"/>
<feComposite in2="hardAlpha" operator="out"/>
<feColorMatrix type="matrix" values="0 0 0 0 0.0336538 0 0 0 0 0.194712 0 0 0 0 1 0 0 0 1 0"/>
<feBlend mode="normal" in2="BackgroundImageFix" result="effect1_dropShadow_459_77"/>
<feBlend mode="normal" in="SourceGraphic" in2="effect1_dropShadow_459_77" result="shape"/>
<feColorMatrix in="SourceAlpha" type="matrix" values="0 0 0 0 0 0 0 0 0 0 0 0 0 0 0 0 0 0 127 0" result="hardAlpha"/>
<feOffset dx="-5" dy="-3"/>
<feGaussianBlur stdDeviation="0.6"/>
<feComposite in2="hardAlpha" operator="arithmetic" k2="-1" k3="1"/>
<feColorMatrix type="matrix" values="0 0 0 0 0.399038 0 0 0 0 0.799679 0 0 0 0 1 0 0 0 1 0"/>
<feBlend mode="normal" in2="shape" result="effect2_innerShadow_459_77"/>
</filter>
<filter id="filter2_i_459_77" x="86" y="232.4" width="572.198" height="304.6" filterUnits="userSpaceOnUse" color-interpolation-filters="sRGB">
<feFlood flood-opacity="0" result="BackgroundImageFix"/>
<feBlend mode="normal" in="SourceGraphic" in2="BackgroundImageFix" result="shape"/>
<feColorMatrix in="SourceAlpha" type="matrix" values="0 0 0 0 0 0 0 0 0 0 0 0 0 0 0 0 0 0 127 0" result="hardAlpha"/>
<feOffset dx="-1" dy="-4"/>
<feGaussianBlur stdDeviation="0.8"/>
<feComposite in2="hardAlpha" operator="arithmetic" k2="-1" k3="1"/>
<feColorMatrix type="matrix" values="0 0 0 0 0.4375 0 0 0 0 0.896875 0 0 0 0 1 0 0 0 1 0"/>
<feBlend mode="normal" in2="shape" result="effect1_innerShadow_459_77"/>
</filter>
<linearGradient id="paint0_linear_459_77" x1="502.5" y1="94.5" x2="181" y2="391" gradientUnits="userSpaceOnUse">
<stop offset="0.477963" stop-color="#F8F9FC"/>
<stop offset="0.883379" stop-color="#BAC4D1"/>
</linearGradient>
<radialGradient id="paint1_radial_459_77" cx="0" cy="0" r="1" gradientUnits="userSpaceOnUse" gradientTransform="translate(351.5 497) rotate(-16.6512) scale(457.171 885.594)">
<stop offset="0.380907" stop-color="#0140CF"/>
<stop offset="0.703351" stop-color="#45D0FE"/>
</radialGradient>
<radialGradient id="paint2_radial_459_77" cx="0" cy="0" r="1" gradientUnits="userSpaceOnUse" gradientTransform="translate(351.5 497) rotate(-16.6512) scale(457.171 885.594)">
<stop offset="0.380907" stop-color="#0140CF"/>
<stop offset="0.703351" stop-color="#45D0FE"/>
</radialGradient>
<linearGradient id="paint3_linear_459_77" x1="646.5" y1="294.5" x2="112" y2="522.5" gradientUnits="userSpaceOnUse">
<stop offset="0.10293" stop-color="#45D0FE"/>
<stop offset="0.666004" stop-color="#0053FE"/>
<stop offset="0.926749" stop-color="#007FFA"/>
</linearGradient>
</defs>
</svg>
