<svg width="1590" height="496" viewBox="0 0 1590 496" fill="none" xmlns="http://www.w3.org/2000/svg">
<g filter="url(#filter0_di_776_1196)">
<path d="M187.1 69.1L143.6 320.6C279.6 200.6 400.6 242.1 492.6 251.1L542.1 21.6L458.6 69.1L434.6 187.1H237.6L270.6 21.6L187.1 69.1Z" fill="url(#paint0_linear_776_1196)"/>
</g>
<g filter="url(#filter1_di_776_1196)">
<path d="M126.6 412.6L121.1 444.6L198.1 401.6L204.1 368.1L165.6 389.1L126.6 412.6Z" fill="url(#paint1_radial_776_1196)"/>
<path d="M383.1 445.6L409.6 317.6C237.6 295.1 143.6 374.6 49.6 445.6C82.8 396.4 180.1 309.6 220.6 291.1C300.2 246.3 394.6 260.1 488.1 270.1C605.1 278.6 618.6 166.6 541.1 142.6C679.6 150.6 667.6 344.1 503.6 395.6C467.1 409.6 438.6 411.6 383.1 445.6Z" fill="url(#paint2_radial_776_1196)"/>
</g>
<g filter="url(#filter2_i_776_1196)">
<path d="M385.1 441.1L409.6 317.6C237.6 295.1 143.6 374.6 49.6 445.6C82.8 396.4 180.1 309.6 220.6 291.1C300.2 246.3 394.6 260.1 488.1 270.1C605.1 278.6 618.6 166.6 541.1 142.6C621.1 158.1 626.6 214.1 617.6 242.1C610.397 264.508 585.1 327.1 475.6 324.1C468.1 420.6 434.6 398.6 385.1 441.1Z" fill="url(#paint3_linear_776_1196)"/>
</g>
<path d="M1316.33 210.002L1324.29 222.792H1301.89L1301.88 222.795L1301.88 222.792H1301.77L1301.83 222.709L1253.34 143.584L1204.85 222.709L1204.91 222.792H1204.8L1204.8 222.795L1204.8 222.792H1182.39L1190.35 210.003L1243.9 122.631L1243.94 122.659L1243.89 122.604H1262.76L1262.76 122.6L1316.33 210.002ZM736.6 162.604H819.6V122.604H839.6V222.604H819.6V182.604H736.6V222.604H716.6V122.604H736.6V162.604ZM935.6 222.604H915.6V122.604H935.6V222.604ZM1028.6 181.21L1103.1 122.604L1132.1 123.104L1076.6 167.604L1134.1 222.104H1107.6L1062.1 178.604L1028.6 204.221V222.604H1008.6V122.604H1028.6V181.21ZM1472.1 122.604C1489.1 123.604 1500.1 140.604 1500.1 156.104C1500.1 174.104 1488.1 192.104 1465.1 189.604L1500.1 222.104H1472.1L1417.6 171.104L1466.1 172.104C1471.1 171.604 1480.1 166.604 1479.6 156.104C1479.12 146.104 1473.1 142.604 1465.37 141.604H1400.6V222.604H1380.6V122.604H1472.1ZM1585.6 222.604H1565.6V122.604H1585.6V222.604Z" fill="#D9D9D9"/>
<path d="M1142.6 325.104L1169.1 267.604H1183.1L1208.6 325.104L1235.1 267.604H1249.1L1214.6 343.604H1201.1L1175.84 283.604L1148.6 343.604H1137.1L1101.6 267.604H1117.1L1142.6 325.104ZM1389.1 268.104L1425.1 328.604L1460.6 268.104H1475.6L1430.6 343.604H1419.1L1373.6 267.604L1389.1 268.104ZM1367.6 342.604H1352.6L1317.1 282.104L1281.1 342.604L1265.6 343.104L1311.1 267.104H1322.6L1367.6 342.604ZM1589.1 342.604H1511.1V330.604H1582.1L1589.1 342.604ZM1571.1 311.104H1511.1V298.604H1578.1L1571.1 311.104ZM1581.6 280.104H1511.1V267.104H1589.1L1581.6 280.104Z" fill="#D9D9D9"/>
<path fill-rule="evenodd" clip-rule="evenodd" d="M981.6 315.104C984.1 327.104 993.6 330.502 1015.1 330.104C1034.6 329.743 1044.6 328.104 1046.6 314.104V267.604H1060.6V314.604C1061.6 341.104 1037.1 344.104 1014.1 344.104C988.679 344.104 969.703 336.742 967.758 317.604H967.6V267.604H981.6V315.104ZM788.495 267.604H788.6V267.608C800.935 268.121 805.1 280.832 805.1 286.604C805.1 294.604 803.1 300.104 797.6 304.104C801.1 305.604 806.982 309.61 806.6 322.604C806.159 337.589 794.451 342.471 788.6 343.418V343.604H712.6V267.604H787.1C787.576 267.586 788.041 267.588 788.495 267.604ZM864.6 329.604H925.6V343.604H850.6V267.604H864.6V329.604ZM726.6 329.604H786.6C789.1 329.604 793.1 326.104 793.1 321.104C793.1 314.788 789.815 311.793 786.882 311.613L786.6 311.604H726.6V329.604ZM726.6 297.604H786.6C790.6 296.604 791.6 293.145 791.6 289.604C791.6 284.975 791.131 283.215 787.465 281.745L787.1 281.604H726.6V297.604Z" fill="#006FFE"/>
<defs>
<filter id="filter0_di_776_1196" x="122" y="-2.47955e-05" width="441.7" height="342.2" filterUnits="userSpaceOnUse" color-interpolation-filters="sRGB">
<feFlood flood-opacity="0" result="BackgroundImageFix"/>
<feColorMatrix in="SourceAlpha" type="matrix" values="0 0 0 0 0 0 0 0 0 0 0 0 0 0 0 0 0 0 127 0" result="hardAlpha"/>
<feOffset/>
<feGaussianBlur stdDeviation="10.8"/>
<feComposite in2="hardAlpha" operator="out"/>
<feColorMatrix type="matrix" values="0 0 0 0 0 0 0 0 0 0.2 0 0 0 0 1 0 0 0 0.86 0"/>
<feBlend mode="normal" in2="BackgroundImageFix" result="effect1_dropShadow_776_1196"/>
<feBlend mode="normal" in="SourceGraphic" in2="effect1_dropShadow_776_1196" result="shape"/>
<feColorMatrix in="SourceAlpha" type="matrix" values="0 0 0 0 0 0 0 0 0 0 0 0 0 0 0 0 0 0 127 0" result="hardAlpha"/>
<feOffset dx="4" dy="-6"/>
<feGaussianBlur stdDeviation="0.75"/>
<feComposite in2="hardAlpha" operator="arithmetic" k2="-1" k3="1"/>
<feColorMatrix type="matrix" values="0 0 0 0 1 0 0 0 0 1 0 0 0 0 1 0 0 0 1 0"/>
<feBlend mode="normal" in2="shape" result="effect2_innerShadow_776_1196"/>
</filter>
<filter id="filter1_di_776_1196" x="-2.28882e-05" y="93" width="686.147" height="402.2" filterUnits="userSpaceOnUse" color-interpolation-filters="sRGB">
<feFlood flood-opacity="0" result="BackgroundImageFix"/>
<feColorMatrix in="SourceAlpha" type="matrix" values="0 0 0 0 0 0 0 0 0 0 0 0 0 0 0 0 0 0 127 0" result="hardAlpha"/>
<feOffset/>
<feGaussianBlur stdDeviation="24.8"/>
<feComposite in2="hardAlpha" operator="out"/>
<feColorMatrix type="matrix" values="0 0 0 0 0.0336538 0 0 0 0 0.194712 0 0 0 0 1 0 0 0 1 0"/>
<feBlend mode="normal" in2="BackgroundImageFix" result="effect1_dropShadow_776_1196"/>
<feBlend mode="normal" in="SourceGraphic" in2="effect1_dropShadow_776_1196" result="shape"/>
<feColorMatrix in="SourceAlpha" type="matrix" values="0 0 0 0 0 0 0 0 0 0 0 0 0 0 0 0 0 0 127 0" result="hardAlpha"/>
<feOffset dx="-5" dy="-3"/>
<feGaussianBlur stdDeviation="0.6"/>
<feComposite in2="hardAlpha" operator="arithmetic" k2="-1" k3="1"/>
<feColorMatrix type="matrix" values="0 0 0 0 0.399038 0 0 0 0 0.799679 0 0 0 0 1 0 0 0 1 0"/>
<feBlend mode="normal" in2="shape" result="effect2_innerShadow_776_1196"/>
</filter>
<filter id="filter2_i_776_1196" x="48.6" y="141" width="572.198" height="304.6" filterUnits="userSpaceOnUse" color-interpolation-filters="sRGB">
<feFlood flood-opacity="0" result="BackgroundImageFix"/>
<feBlend mode="normal" in="SourceGraphic" in2="BackgroundImageFix" result="shape"/>
<feColorMatrix in="SourceAlpha" type="matrix" values="0 0 0 0 0 0 0 0 0 0 0 0 0 0 0 0 0 0 127 0" result="hardAlpha"/>
<feOffset dx="-1" dy="-4"/>
<feGaussianBlur stdDeviation="0.8"/>
<feComposite in2="hardAlpha" operator="arithmetic" k2="-1" k3="1"/>
<feColorMatrix type="matrix" values="0 0 0 0 0.4375 0 0 0 0 0.896875 0 0 0 0 1 0 0 0 1 0"/>
<feBlend mode="normal" in2="shape" result="effect1_innerShadow_776_1196"/>
</filter>
<linearGradient id="paint0_linear_776_1196" x1="465.1" y1="3.09997" x2="143.6" y2="299.6" gradientUnits="userSpaceOnUse">
<stop offset="0.477963" stop-color="#F8F9FC"/>
<stop offset="0.883379" stop-color="#BAC4D1"/>
</linearGradient>
<radialGradient id="paint1_radial_776_1196" cx="0" cy="0" r="1" gradientUnits="userSpaceOnUse" gradientTransform="translate(314.1 405.6) rotate(-16.6512) scale(457.171 885.594)">
<stop offset="0.380907" stop-color="#0140CF"/>
<stop offset="0.703351" stop-color="#45D0FE"/>
</radialGradient>
<radialGradient id="paint2_radial_776_1196" cx="0" cy="0" r="1" gradientUnits="userSpaceOnUse" gradientTransform="translate(314.1 405.6) rotate(-16.6512) scale(457.171 885.594)">
<stop offset="0.380907" stop-color="#0140CF"/>
<stop offset="0.703351" stop-color="#45D0FE"/>
</radialGradient>
<linearGradient id="paint3_linear_776_1196" x1="609.1" y1="203.1" x2="74.6" y2="431.1" gradientUnits="userSpaceOnUse">
<stop offset="0.10293" stop-color="#45D0FE"/>
<stop offset="0.666004" stop-color="#0053FE"/>
<stop offset="0.926749" stop-color="#007FFA"/>
</linearGradient>
</defs>
</svg>
