<svg width="877" height="795" viewBox="0 0 877 795" fill="none" xmlns="http://www.w3.org/2000/svg">
<g filter="url(#filter0_di_786_1196)">
<path d="M282.277 69.1L238.777 320.6C374.777 200.6 495.777 242.1 587.777 251.1L637.277 21.6L553.777 69.1L529.777 187.1H332.777L365.777 21.6L282.277 69.1Z" fill="url(#paint0_linear_786_1196)"/>
</g>
<g filter="url(#filter1_di_786_1196)">
<path d="M221.777 412.6L216.277 444.6L293.277 401.6L299.277 368.1L260.777 389.1L221.777 412.6Z" fill="url(#paint1_radial_786_1196)"/>
<path d="M478.277 445.6L504.777 317.6C332.777 295.1 238.777 374.6 144.777 445.6C177.977 396.4 275.277 309.6 315.777 291.1C395.377 246.3 489.777 260.1 583.277 270.1C700.277 278.6 713.777 166.6 636.277 142.6C774.777 150.6 762.777 344.1 598.777 395.6C562.277 409.6 533.777 411.6 478.277 445.6Z" fill="url(#paint2_radial_786_1196)"/>
</g>
<g filter="url(#filter2_i_786_1196)">
<path d="M480.277 441.1L504.777 317.6C332.777 295.1 238.777 374.6 144.777 445.6C177.977 396.4 275.277 309.6 315.777 291.1C395.377 246.3 489.777 260.1 583.277 270.1C700.277 278.6 713.777 166.6 636.277 142.6C716.277 158.1 721.777 214.1 712.777 242.1C705.574 264.508 680.277 327.1 570.777 324.1C563.277 420.6 529.777 398.6 480.277 441.1Z" fill="url(#paint3_linear_786_1196)"/>
</g>
<path d="M604.881 565.968L612.936 578.792H590.337L590.332 578.795L590.33 578.792H590.225L590.279 578.709L541.372 499.584L492.466 578.708L492.521 578.792H492.415L492.413 578.795L492.408 578.792H469.811L477.806 566.063L531.848 478.631L531.894 478.659L531.84 478.604H550.872L550.879 478.6L604.881 565.968ZM20.1729 518.604H103.889V478.604H124.062V578.604H103.889V538.604H20.1729V578.604H0V478.604H20.1729V518.604ZM220.89 578.604H200.718V478.604H220.89V578.604ZM314.693 537.209L389.836 478.604L419.086 479.104L363.107 523.604L421.104 578.104H394.375L348.481 534.604L314.693 560.221V578.604H294.521V478.604H314.693V537.209ZM762.021 478.604C779.167 479.604 790.262 496.604 790.262 512.104C790.262 530.104 778.158 548.104 754.96 545.604L790.262 578.104H762.021L707.05 527.104L755.969 528.104C761.012 527.604 770.089 522.604 769.585 512.104C769.105 502.104 763.029 498.604 755.231 497.604H689.903V578.604H669.73V478.604H762.021ZM876.5 578.604H856.327V478.604H876.5V578.604Z" fill="#D9D9D9"/>
<path d="M430 669.795L456.5 612.295H470.5L496 669.795L522.5 612.295H536.5L502 688.295H488.5L463.236 628.295L436 688.295H424.5L389 612.295H404.5L430 669.795ZM676.5 612.795L712.5 673.295L748 612.795H763L718 688.295H706.5L661 612.295L676.5 612.795ZM655 687.295H640L604.5 626.795L568.5 687.295L553 687.795L598.5 611.795H610L655 687.295ZM876.5 687.295H798.5V675.295H869.5L876.5 687.295ZM858.5 655.795H798.5V643.295H865.5L858.5 655.795ZM869 624.795H798.5V611.795H876.5L869 624.795Z" fill="#D9D9D9"/>
<path fill-rule="evenodd" clip-rule="evenodd" d="M269 659.795C271.5 671.795 281 675.193 302.5 674.795C321.997 674.434 332 672.795 334 658.795V612.295H348V659.295C349 685.795 324.5 688.795 301.5 688.795C276.079 688.795 257.103 681.433 255.158 662.295H255V612.295H269V659.795ZM75.8945 612.295H76V612.299C88.3354 612.812 92.5 625.523 92.5 631.295C92.5 639.295 90.5 644.795 85 648.795C88.5 650.295 94.3822 654.301 94 667.295C93.5592 682.281 81.8508 687.163 76 688.11V688.295H0V612.295H74.5C74.976 612.278 75.4407 612.279 75.8945 612.295ZM152 674.295H213V688.295H138V612.295H152V674.295ZM14 674.295H74C76.5 674.295 80.4999 670.795 80.5 665.795C80.5 659.48 77.215 656.485 74.2822 656.304L74 656.295H14V674.295ZM14 642.295H74C77.9999 641.295 79 637.836 79 634.295C79 629.666 78.5307 627.906 74.8652 626.437L74.5 626.295H14V642.295Z" fill="#006FFE"/>
<g filter="url(#filter3_f_786_1196)">
<line x1="400.75" y1="720.795" x2="475.75" y2="720.795" stroke="url(#paint4_linear_786_1196)" stroke-width="2"/>
</g>
<path d="M90.3584 757.355C90.3584 757.195 90.3984 757.075 90.5184 756.955C90.6184 756.855 90.7584 756.795 90.9184 756.795H102.078C102.238 756.795 102.358 756.855 102.478 756.955C102.578 757.075 102.638 757.195 102.638 757.355V757.915C102.638 758.075 102.578 758.215 102.478 758.315C102.358 758.435 102.238 758.475 102.078 758.475H97.3984V770.235C97.3984 770.395 97.3384 770.535 97.2384 770.635C97.1184 770.755 96.9984 770.795 96.8384 770.795H96.1584C95.9984 770.795 95.8584 770.755 95.7584 770.635C95.6384 770.535 95.5984 770.395 95.5984 770.235V758.475H90.9184C90.7584 758.475 90.6184 758.435 90.5184 758.315C90.3984 758.215 90.3584 758.075 90.3584 757.915V757.355ZM115.138 757.355C115.138 757.195 115.178 757.075 115.298 756.955C115.398 756.855 115.538 756.795 115.698 756.795H124.658C124.818 756.795 124.938 756.855 125.058 756.955C125.158 757.075 125.218 757.195 125.218 757.355V757.915C125.218 758.075 125.158 758.215 125.058 758.315C124.938 758.435 124.818 758.475 124.658 758.475H116.938V762.875H123.638C123.798 762.875 123.918 762.935 124.038 763.035C124.138 763.155 124.198 763.275 124.198 763.435V763.975C124.198 764.155 124.138 764.295 124.038 764.395C123.918 764.515 123.798 764.555 123.638 764.555H116.938V769.115H124.758C124.918 769.115 125.038 769.175 125.158 769.275C125.258 769.395 125.318 769.515 125.318 769.675V770.235C125.318 770.395 125.258 770.535 125.158 770.635C125.038 770.755 124.918 770.795 124.758 770.795H115.698C115.538 770.795 115.398 770.755 115.298 770.635C115.178 770.535 115.138 770.395 115.138 770.235V757.355ZM150.465 767.855C149.825 768.855 148.965 769.615 147.925 770.175C146.865 770.735 145.705 771.015 144.425 771.015C142.365 771.015 140.645 770.335 139.265 768.955C137.885 767.575 137.205 765.855 137.205 763.795C137.205 761.755 137.885 760.035 139.265 758.655C140.645 757.275 142.365 756.575 144.425 756.575C145.705 756.575 146.865 756.855 147.925 757.415C148.965 757.975 149.825 758.755 150.465 759.735C150.545 759.875 150.565 760.015 150.525 760.135C150.485 760.255 150.385 760.355 150.245 760.415L149.525 760.675C149.465 760.715 149.385 760.715 149.285 760.715C149.025 760.715 148.825 760.615 148.705 760.415C147.645 759.015 146.225 758.315 144.425 758.315C142.905 758.315 141.625 758.855 140.605 759.895C139.565 760.935 139.065 762.235 139.065 763.795C139.065 765.355 139.565 766.675 140.605 767.715C141.625 768.755 142.905 769.275 144.425 769.275C146.225 769.275 147.645 768.575 148.705 767.175C148.825 766.975 149.025 766.875 149.285 766.875C149.385 766.875 149.465 766.895 149.525 766.915L150.245 767.175C150.385 767.235 150.485 767.335 150.525 767.455C150.565 767.595 150.545 767.735 150.465 767.855ZM163.672 757.335C163.672 757.195 163.712 757.075 163.832 756.955C163.932 756.855 164.052 756.795 164.212 756.795H164.772C165.092 756.795 165.352 756.935 165.552 757.175L173.912 767.675V757.355C173.912 757.195 173.952 757.075 174.072 756.955C174.172 756.855 174.312 756.795 174.472 756.795H175.092C175.252 756.795 175.372 756.855 175.492 756.955C175.592 757.075 175.652 757.195 175.652 757.355V770.255C175.652 770.415 175.592 770.535 175.492 770.635C175.372 770.755 175.252 770.795 175.092 770.795H174.552C174.212 770.795 173.952 770.675 173.772 770.415L165.412 759.935V770.235C165.412 770.395 165.352 770.535 165.252 770.635C165.132 770.755 165.012 770.795 164.852 770.795H164.232C164.072 770.795 163.932 770.755 163.832 770.635C163.712 770.535 163.672 770.395 163.672 770.235V757.335ZM188.63 763.795C188.63 761.755 189.31 760.035 190.69 758.655C192.07 757.275 193.79 756.575 195.85 756.575C197.91 756.575 199.63 757.275 201.01 758.655C202.39 760.035 203.09 761.755 203.09 763.795C203.09 765.855 202.39 767.575 201.01 768.955C199.63 770.335 197.91 771.015 195.85 771.015C193.79 771.015 192.07 770.335 190.69 768.955C189.31 767.575 188.63 765.855 188.63 763.795ZM190.49 763.795C190.49 765.355 190.99 766.675 192.03 767.715C193.05 768.755 194.33 769.275 195.85 769.275C197.37 769.275 198.65 768.755 199.67 767.715C200.69 766.675 201.21 765.355 201.21 763.795C201.21 762.235 200.69 760.935 199.67 759.895C198.65 758.855 197.37 758.315 195.85 758.315C194.33 758.315 193.05 758.855 192.03 759.895C190.99 760.935 190.49 762.235 190.49 763.795ZM216.054 757.355C216.054 757.195 216.094 757.075 216.214 756.955C216.314 756.855 216.454 756.795 216.614 756.795H217.294C217.454 756.795 217.574 756.855 217.694 756.955C217.794 757.075 217.854 757.195 217.854 757.355V769.115H224.874C225.034 769.115 225.154 769.175 225.274 769.275C225.374 769.395 225.434 769.515 225.434 769.675V770.235C225.434 770.395 225.374 770.535 225.274 770.635C225.154 770.755 225.034 770.795 224.874 770.795H216.614C216.454 770.795 216.314 770.755 216.214 770.635C216.094 770.535 216.054 770.395 216.054 770.235V757.355ZM236.578 763.795C236.578 761.755 237.258 760.035 238.638 758.655C240.018 757.275 241.738 756.575 243.798 756.575C245.858 756.575 247.578 757.275 248.958 758.655C250.338 760.035 251.038 761.755 251.038 763.795C251.038 765.855 250.338 767.575 248.958 768.955C247.578 770.335 245.858 771.015 243.798 771.015C241.738 771.015 240.018 770.335 238.638 768.955C237.258 767.575 236.578 765.855 236.578 763.795ZM238.438 763.795C238.438 765.355 238.938 766.675 239.978 767.715C240.998 768.755 242.278 769.275 243.798 769.275C245.318 769.275 246.598 768.755 247.618 767.715C248.638 766.675 249.158 765.355 249.158 763.795C249.158 762.235 248.638 760.935 247.618 759.895C246.598 758.855 245.318 758.315 243.798 758.315C242.278 758.315 240.998 758.855 239.978 759.895C238.938 760.935 238.438 762.235 238.438 763.795ZM277.823 763.915C277.743 765.955 277.043 767.655 275.683 768.995C274.323 770.355 272.643 771.015 270.643 771.015C268.603 771.015 266.883 770.335 265.523 768.955C264.143 767.575 263.463 765.855 263.463 763.795C263.463 761.735 264.163 760.015 265.563 758.635C266.963 757.275 268.703 756.575 270.803 756.575C272.083 756.575 273.263 756.855 274.343 757.415C275.423 757.975 276.283 758.755 276.923 759.735C277.003 759.875 277.023 760.015 276.983 760.135C276.943 760.255 276.843 760.355 276.703 760.415L275.983 760.675C275.923 760.715 275.843 760.715 275.743 760.715C275.483 760.715 275.283 760.615 275.163 760.415C274.663 759.775 274.043 759.255 273.283 758.875C272.523 758.515 271.683 758.315 270.803 758.315C269.243 758.315 267.943 758.855 266.903 759.895C265.843 760.935 265.323 762.235 265.323 763.795C265.323 765.355 265.823 766.675 266.843 767.715C267.843 768.755 269.103 769.275 270.583 769.275C271.863 769.275 272.983 768.895 273.963 768.095C274.943 767.295 275.543 766.275 275.763 765.035H270.763C270.603 765.035 270.463 764.995 270.363 764.875C270.243 764.775 270.203 764.635 270.203 764.475V763.915C270.203 763.755 270.243 763.635 270.363 763.515C270.463 763.415 270.603 763.355 270.763 763.355H277.223C277.383 763.355 277.523 763.415 277.643 763.535C277.763 763.655 277.823 763.775 277.823 763.915ZM290.789 770.235V757.355C290.789 757.195 290.829 757.075 290.949 756.955C291.049 756.855 291.189 756.795 291.349 756.795H292.029C292.189 756.795 292.309 756.855 292.429 756.955C292.529 757.075 292.589 757.195 292.589 757.355V770.235C292.589 770.395 292.529 770.535 292.429 770.635C292.309 770.755 292.189 770.795 292.029 770.795H291.349C291.189 770.795 291.049 770.755 290.949 770.635C290.829 770.535 290.789 770.395 290.789 770.235ZM305.131 770.275L310.851 757.235C310.971 756.955 311.191 756.795 311.531 756.795H311.991C312.311 756.795 312.551 756.955 312.671 757.235L318.391 770.275C318.451 770.435 318.451 770.555 318.391 770.655C318.331 770.755 318.231 770.795 318.071 770.795H317.291C317.131 770.795 316.971 770.755 316.811 770.655C316.651 770.555 316.551 770.435 316.511 770.275L315.371 767.655H308.171L307.031 770.275C306.871 770.635 306.591 770.795 306.231 770.795H305.451C305.291 770.795 305.171 770.755 305.111 770.655C305.051 770.555 305.051 770.435 305.131 770.275ZM311.771 759.395L308.911 765.975H314.631L311.771 759.395ZM353.494 771.015C351.434 771.015 349.714 770.335 348.334 768.955C346.954 767.575 346.274 765.855 346.274 763.795C346.274 761.755 346.954 760.035 348.334 758.655C349.714 757.275 351.434 756.575 353.494 756.575C355.554 756.575 357.274 757.275 358.654 758.655C360.034 760.035 360.734 761.755 360.734 763.795C360.734 765.715 360.114 767.335 358.914 768.675L360.414 770.175C360.654 770.455 360.654 770.715 360.414 770.975L359.974 771.415C359.874 771.535 359.734 771.575 359.574 771.575C359.414 771.575 359.274 771.535 359.174 771.415L357.594 769.815C356.354 770.615 354.994 771.015 353.494 771.015ZM353.494 758.315C351.974 758.315 350.694 758.855 349.674 759.895C348.634 760.935 348.134 762.235 348.134 763.795C348.134 765.355 348.634 766.675 349.674 767.715C350.694 768.755 351.974 769.275 353.494 769.275C354.514 769.275 355.454 769.035 356.294 768.515L354.294 766.515C354.014 766.255 354.014 765.995 354.294 765.715L354.734 765.275C354.834 765.175 354.974 765.115 355.134 765.115C355.294 765.115 355.414 765.175 355.514 765.275L357.614 767.375C358.434 766.375 358.854 765.195 358.854 763.795C358.854 762.235 358.334 760.935 357.314 759.895C356.294 758.855 355.014 758.315 353.494 758.315ZM379.458 771.015C377.758 771.015 376.338 770.475 375.198 769.355C374.058 768.235 373.498 766.855 373.498 765.195V757.355C373.498 757.195 373.538 757.075 373.658 756.955C373.758 756.855 373.898 756.795 374.058 756.795H374.738C374.898 756.795 375.018 756.855 375.138 756.955C375.238 757.075 375.298 757.195 375.298 757.355V765.195C375.298 766.395 375.678 767.375 376.478 768.155C377.278 768.955 378.258 769.335 379.458 769.335C380.618 769.335 381.598 768.955 382.398 768.155C383.198 767.355 383.598 766.375 383.598 765.195V757.355C383.598 757.195 383.638 757.075 383.758 756.955C383.858 756.855 383.998 756.795 384.158 756.795H384.858C385.018 756.795 385.138 756.855 385.258 756.955C385.358 757.075 385.418 757.195 385.418 757.355V765.195C385.418 766.855 384.838 768.235 383.698 769.355C382.558 770.475 381.138 771.015 379.458 771.015ZM398.746 757.355C398.746 757.195 398.786 757.075 398.906 756.955C399.006 756.855 399.146 756.795 399.306 756.795H408.266C408.426 756.795 408.546 756.855 408.666 756.955C408.766 757.075 408.826 757.195 408.826 757.355V757.915C408.826 758.075 408.766 758.215 408.666 758.315C408.546 758.435 408.426 758.475 408.266 758.475H400.546V762.875H407.246C407.406 762.875 407.526 762.935 407.646 763.035C407.746 763.155 407.806 763.275 407.806 763.435V763.975C407.806 764.155 407.746 764.295 407.646 764.395C407.526 764.515 407.406 764.555 407.246 764.555H400.546V769.115H408.366C408.526 769.115 408.646 769.175 408.766 769.275C408.866 769.395 408.926 769.515 408.926 769.675V770.235C408.926 770.395 408.866 770.535 408.766 770.635C408.646 770.755 408.526 770.795 408.366 770.795H399.306C399.146 770.795 399.006 770.755 398.906 770.635C398.786 770.535 398.746 770.395 398.746 770.235V757.355ZM437.554 770.235V757.355C437.554 757.195 437.594 757.075 437.714 756.955C437.814 756.855 437.954 756.795 438.114 756.795H438.794C438.954 756.795 439.074 756.855 439.194 756.955C439.294 757.075 439.354 757.195 439.354 757.355V770.235C439.354 770.395 439.294 770.535 439.194 770.635C439.074 770.755 438.954 770.795 438.794 770.795H438.114C437.954 770.795 437.814 770.755 437.714 770.635C437.594 770.535 437.554 770.395 437.554 770.235ZM452.876 757.355C452.876 757.195 452.916 757.075 453.036 756.955C453.136 756.855 453.276 756.795 453.436 756.795H454.116C454.276 756.795 454.396 756.855 454.516 756.955C454.616 757.075 454.676 757.195 454.676 757.355V769.115H461.696C461.856 769.115 461.976 769.175 462.096 769.275C462.196 769.395 462.256 769.515 462.256 769.675V770.235C462.256 770.395 462.196 770.535 462.096 770.635C461.976 770.755 461.856 770.795 461.696 770.795H453.436C453.276 770.795 453.136 770.755 453.036 770.635C452.916 770.535 452.876 770.395 452.876 770.235V757.355ZM480.032 771.015C478.332 771.015 476.912 770.475 475.772 769.355C474.632 768.235 474.072 766.855 474.072 765.195V757.355C474.072 757.195 474.112 757.075 474.232 756.955C474.332 756.855 474.472 756.795 474.632 756.795H475.312C475.472 756.795 475.592 756.855 475.712 756.955C475.812 757.075 475.872 757.195 475.872 757.355V765.195C475.872 766.395 476.252 767.375 477.052 768.155C477.852 768.955 478.832 769.335 480.032 769.335C481.192 769.335 482.172 768.955 482.972 768.155C483.772 767.355 484.172 766.375 484.172 765.195V757.355C484.172 757.195 484.212 757.075 484.332 756.955C484.432 756.855 484.572 756.795 484.732 756.795H485.432C485.592 756.795 485.712 756.855 485.832 756.955C485.932 757.075 485.992 757.195 485.992 757.355V765.195C485.992 766.855 485.412 768.235 484.272 769.355C483.132 770.475 481.712 771.015 480.032 771.015ZM499.321 757.355C499.321 757.195 499.361 757.075 499.481 756.955C499.581 756.855 499.721 756.795 499.881 756.795H500.561C500.941 756.795 501.221 756.975 501.421 757.295L506.761 766.635L512.081 757.295C512.261 756.975 512.541 756.795 512.941 756.795H513.621C513.781 756.795 513.901 756.855 514.021 756.955C514.121 757.075 514.181 757.195 514.181 757.355V770.235C514.181 770.395 514.121 770.535 514.021 770.635C513.901 770.755 513.781 770.795 513.621 770.795H512.941C512.781 770.795 512.641 770.755 512.541 770.635C512.421 770.535 512.381 770.395 512.381 770.235V760.255L507.521 768.735C507.401 768.955 507.221 769.055 506.981 769.055H506.521C506.281 769.055 506.101 768.955 505.981 768.735L501.121 760.255V770.235C501.121 770.395 501.061 770.535 500.961 770.635C500.841 770.755 500.721 770.795 500.561 770.795H499.881C499.721 770.795 499.581 770.755 499.481 770.635C499.361 770.535 499.321 770.395 499.321 770.235V757.355ZM527.709 770.235V757.355C527.709 757.195 527.749 757.075 527.869 756.955C527.969 756.855 528.109 756.795 528.269 756.795H528.949C529.109 756.795 529.229 756.855 529.349 756.955C529.449 757.075 529.509 757.195 529.509 757.355V770.235C529.509 770.395 529.449 770.535 529.349 770.635C529.229 770.755 529.109 770.795 528.949 770.795H528.269C528.109 770.795 527.969 770.755 527.869 770.635C527.749 770.535 527.709 770.395 527.709 770.235ZM543.031 757.335C543.031 757.195 543.071 757.075 543.191 756.955C543.291 756.855 543.411 756.795 543.571 756.795H544.131C544.451 756.795 544.711 756.935 544.911 757.175L553.271 767.675V757.355C553.271 757.195 553.311 757.075 553.431 756.955C553.531 756.855 553.671 756.795 553.831 756.795H554.451C554.611 756.795 554.731 756.855 554.851 756.955C554.951 757.075 555.011 757.195 555.011 757.355V770.255C555.011 770.415 554.951 770.535 554.851 770.635C554.731 770.755 554.611 770.795 554.451 770.795H553.911C553.571 770.795 553.311 770.675 553.131 770.415L544.771 759.935V770.235C544.771 770.395 544.711 770.535 544.611 770.635C544.491 770.755 544.371 770.795 544.211 770.795H543.591C543.431 770.795 543.291 770.755 543.191 770.635C543.071 770.535 543.031 770.395 543.031 770.235V757.335ZM567.548 770.275L573.268 757.235C573.388 756.955 573.608 756.795 573.948 756.795H574.408C574.728 756.795 574.968 756.955 575.088 757.235L580.808 770.275C580.868 770.435 580.868 770.555 580.808 770.655C580.748 770.755 580.648 770.795 580.488 770.795H579.708C579.548 770.795 579.388 770.755 579.228 770.655C579.068 770.555 578.968 770.435 578.928 770.275L577.788 767.655H570.588L569.448 770.275C569.288 770.635 569.008 770.795 568.648 770.795H567.868C567.708 770.795 567.588 770.755 567.528 770.655C567.468 770.555 567.468 770.435 567.548 770.275ZM574.188 759.395L571.328 765.975H577.048L574.188 759.395ZM608.691 763.795C608.691 761.755 609.371 760.035 610.751 758.655C612.131 757.275 613.851 756.575 615.911 756.575C617.971 756.575 619.691 757.275 621.071 758.655C622.451 760.035 623.151 761.755 623.151 763.795C623.151 765.855 622.451 767.575 621.071 768.955C619.691 770.335 617.971 771.015 615.911 771.015C613.851 771.015 612.131 770.335 610.751 768.955C609.371 767.575 608.691 765.855 608.691 763.795ZM610.551 763.795C610.551 765.355 611.051 766.675 612.091 767.715C613.111 768.755 614.391 769.275 615.911 769.275C617.431 769.275 618.711 768.755 619.731 767.715C620.751 766.675 621.271 765.355 621.271 763.795C621.271 762.235 620.751 760.935 619.731 759.895C618.711 758.855 617.431 758.315 615.911 758.315C614.391 758.315 613.111 758.855 612.091 759.895C611.051 760.935 610.551 762.235 610.551 763.795ZM652.003 770.235V757.355C652.003 757.195 652.043 757.075 652.163 756.955C652.263 756.855 652.403 756.795 652.563 756.795H661.523C661.683 756.795 661.803 756.855 661.923 756.955C662.023 757.075 662.083 757.195 662.083 757.355V757.915C662.083 758.075 662.023 758.215 661.923 758.315C661.803 758.435 661.683 758.475 661.523 758.475H653.803V762.795H660.503C660.663 762.795 660.783 762.855 660.903 762.955C661.003 763.075 661.063 763.195 661.063 763.355V763.915C661.063 764.075 661.003 764.215 660.903 764.315C660.783 764.435 660.663 764.475 660.503 764.475H653.803V770.235C653.803 770.395 653.743 770.535 653.643 770.635C653.523 770.755 653.403 770.795 653.243 770.795H652.563C652.403 770.795 652.263 770.755 652.163 770.635C652.043 770.535 652.003 770.395 652.003 770.235ZM680.273 771.015C678.573 771.015 677.153 770.475 676.013 769.355C674.873 768.235 674.313 766.855 674.313 765.195V757.355C674.313 757.195 674.353 757.075 674.473 756.955C674.573 756.855 674.713 756.795 674.873 756.795H675.553C675.713 756.795 675.833 756.855 675.953 756.955C676.053 757.075 676.113 757.195 676.113 757.355V765.195C676.113 766.395 676.493 767.375 677.293 768.155C678.093 768.955 679.073 769.335 680.273 769.335C681.433 769.335 682.413 768.955 683.213 768.155C684.013 767.355 684.413 766.375 684.413 765.195V757.355C684.413 757.195 684.453 757.075 684.573 756.955C684.673 756.855 684.813 756.795 684.973 756.795H685.673C685.833 756.795 685.953 756.855 686.073 756.955C686.173 757.075 686.233 757.195 686.233 757.355V765.195C686.233 766.855 685.653 768.235 684.513 769.355C683.373 770.475 681.953 771.015 680.273 771.015ZM698.404 757.355C698.404 757.195 698.444 757.075 698.564 756.955C698.664 756.855 698.804 756.795 698.964 756.795H710.124C710.284 756.795 710.404 756.855 710.524 756.955C710.624 757.075 710.684 757.195 710.684 757.355V757.915C710.684 758.075 710.624 758.215 710.524 758.315C710.404 758.435 710.284 758.475 710.124 758.475H705.444V770.235C705.444 770.395 705.384 770.535 705.284 770.635C705.164 770.755 705.044 770.795 704.884 770.795H704.204C704.044 770.795 703.904 770.755 703.804 770.635C703.684 770.535 703.644 770.395 703.644 770.235V758.475H698.964C698.804 758.475 698.664 758.435 698.564 758.315C698.444 758.215 698.404 758.075 698.404 757.915V757.355ZM728.807 771.015C727.107 771.015 725.687 770.475 724.547 769.355C723.407 768.235 722.847 766.855 722.847 765.195V757.355C722.847 757.195 722.887 757.075 723.007 756.955C723.107 756.855 723.247 756.795 723.407 756.795H724.087C724.247 756.795 724.367 756.855 724.487 756.955C724.587 757.075 724.647 757.195 724.647 757.355V765.195C724.647 766.395 725.027 767.375 725.827 768.155C726.627 768.955 727.607 769.335 728.807 769.335C729.967 769.335 730.947 768.955 731.747 768.155C732.547 767.355 732.947 766.375 732.947 765.195V757.355C732.947 757.195 732.987 757.075 733.107 756.955C733.207 756.855 733.347 756.795 733.507 756.795H734.207C734.367 756.795 734.487 756.855 734.607 756.955C734.707 757.075 734.767 757.195 734.767 757.355V765.195C734.767 766.855 734.187 768.235 733.047 769.355C731.907 770.475 730.487 771.015 728.807 771.015ZM748.096 757.355C748.096 757.195 748.136 757.075 748.256 756.955C748.356 756.855 748.496 756.795 748.656 756.795H754.436C755.716 756.795 756.796 757.215 757.676 758.035C758.536 758.875 758.976 759.895 758.976 761.115C758.976 762.075 758.696 762.915 758.176 763.635C757.636 764.355 756.936 764.875 756.056 765.175L759.216 770.315C759.296 770.455 759.296 770.575 759.256 770.655C759.196 770.755 759.096 770.795 758.936 770.795H758.036C757.636 770.795 757.356 770.635 757.176 770.315L754.196 765.435H749.896V770.235C749.896 770.395 749.836 770.535 749.736 770.635C749.616 770.755 749.496 770.795 749.336 770.795H748.656C748.496 770.795 748.356 770.755 748.256 770.635C748.136 770.535 748.096 770.395 748.096 770.235V757.355ZM754.436 758.475H749.896V763.755H754.436C755.196 763.755 755.816 763.515 756.336 762.995C756.836 762.495 757.096 761.875 757.096 761.115C757.096 760.355 756.836 759.735 756.336 759.235C755.816 758.735 755.196 758.475 754.436 758.475ZM771.217 763.795C771.217 761.755 771.897 760.035 773.277 758.655C774.657 757.275 776.377 756.575 778.437 756.575C780.497 756.575 782.217 757.275 783.597 758.655C784.977 760.035 785.677 761.755 785.677 763.795C785.677 765.855 784.977 767.575 783.597 768.955C782.217 770.335 780.497 771.015 778.437 771.015C776.377 771.015 774.657 770.335 773.277 768.955C771.897 767.575 771.217 765.855 771.217 763.795ZM773.077 763.795C773.077 765.355 773.577 766.675 774.617 767.715C775.637 768.755 776.917 769.275 778.437 769.275C779.957 769.275 781.237 768.755 782.257 767.715C783.277 766.675 783.797 765.355 783.797 763.795C783.797 762.235 783.277 760.935 782.257 759.895C781.237 758.855 779.957 758.315 778.437 758.315C776.917 758.315 775.637 758.855 774.617 759.895C773.577 760.935 773.077 762.235 773.077 763.795Z" fill="white"/>
<defs>
<filter id="filter0_di_786_1196" x="217.177" y="5.72205e-06" width="441.7" height="342.2" filterUnits="userSpaceOnUse" color-interpolation-filters="sRGB">
<feFlood flood-opacity="0" result="BackgroundImageFix"/>
<feColorMatrix in="SourceAlpha" type="matrix" values="0 0 0 0 0 0 0 0 0 0 0 0 0 0 0 0 0 0 127 0" result="hardAlpha"/>
<feOffset/>
<feGaussianBlur stdDeviation="10.8"/>
<feComposite in2="hardAlpha" operator="out"/>
<feColorMatrix type="matrix" values="0 0 0 0 0 0 0 0 0 0.2 0 0 0 0 1 0 0 0 0.86 0"/>
<feBlend mode="normal" in2="BackgroundImageFix" result="effect1_dropShadow_786_1196"/>
<feBlend mode="normal" in="SourceGraphic" in2="effect1_dropShadow_786_1196" result="shape"/>
<feColorMatrix in="SourceAlpha" type="matrix" values="0 0 0 0 0 0 0 0 0 0 0 0 0 0 0 0 0 0 127 0" result="hardAlpha"/>
<feOffset dx="4" dy="-6"/>
<feGaussianBlur stdDeviation="0.75"/>
<feComposite in2="hardAlpha" operator="arithmetic" k2="-1" k3="1"/>
<feColorMatrix type="matrix" values="0 0 0 0 1 0 0 0 0 1 0 0 0 0 1 0 0 0 1 0"/>
<feBlend mode="normal" in2="shape" result="effect2_innerShadow_786_1196"/>
</filter>
<filter id="filter1_di_786_1196" x="95.1766" y="93" width="686.147" height="402.2" filterUnits="userSpaceOnUse" color-interpolation-filters="sRGB">
<feFlood flood-opacity="0" result="BackgroundImageFix"/>
<feColorMatrix in="SourceAlpha" type="matrix" values="0 0 0 0 0 0 0 0 0 0 0 0 0 0 0 0 0 0 127 0" result="hardAlpha"/>
<feOffset/>
<feGaussianBlur stdDeviation="24.8"/>
<feComposite in2="hardAlpha" operator="out"/>
<feColorMatrix type="matrix" values="0 0 0 0 0.0336538 0 0 0 0 0.194712 0 0 0 0 1 0 0 0 1 0"/>
<feBlend mode="normal" in2="BackgroundImageFix" result="effect1_dropShadow_786_1196"/>
<feBlend mode="normal" in="SourceGraphic" in2="effect1_dropShadow_786_1196" result="shape"/>
<feColorMatrix in="SourceAlpha" type="matrix" values="0 0 0 0 0 0 0 0 0 0 0 0 0 0 0 0 0 0 127 0" result="hardAlpha"/>
<feOffset dx="-5" dy="-3"/>
<feGaussianBlur stdDeviation="0.6"/>
<feComposite in2="hardAlpha" operator="arithmetic" k2="-1" k3="1"/>
<feColorMatrix type="matrix" values="0 0 0 0 0.399038 0 0 0 0 0.799679 0 0 0 0 1 0 0 0 1 0"/>
<feBlend mode="normal" in2="shape" result="effect2_innerShadow_786_1196"/>
</filter>
<filter id="filter2_i_786_1196" x="143.777" y="141" width="572.198" height="304.6" filterUnits="userSpaceOnUse" color-interpolation-filters="sRGB">
<feFlood flood-opacity="0" result="BackgroundImageFix"/>
<feBlend mode="normal" in="SourceGraphic" in2="BackgroundImageFix" result="shape"/>
<feColorMatrix in="SourceAlpha" type="matrix" values="0 0 0 0 0 0 0 0 0 0 0 0 0 0 0 0 0 0 127 0" result="hardAlpha"/>
<feOffset dx="-1" dy="-4"/>
<feGaussianBlur stdDeviation="0.8"/>
<feComposite in2="hardAlpha" operator="arithmetic" k2="-1" k3="1"/>
<feColorMatrix type="matrix" values="0 0 0 0 0.4375 0 0 0 0 0.896875 0 0 0 0 1 0 0 0 1 0"/>
<feBlend mode="normal" in2="shape" result="effect1_innerShadow_786_1196"/>
</filter>
<filter id="filter3_f_786_1196" x="399.65" y="718.695" width="77.2" height="4.2" filterUnits="userSpaceOnUse" color-interpolation-filters="sRGB">
<feFlood flood-opacity="0" result="BackgroundImageFix"/>
<feBlend mode="normal" in="SourceGraphic" in2="BackgroundImageFix" result="shape"/>
<feGaussianBlur stdDeviation="0.55" result="effect1_foregroundBlur_786_1196"/>
</filter>
<linearGradient id="paint0_linear_786_1196" x1="560.277" y1="3.1" x2="238.777" y2="299.6" gradientUnits="userSpaceOnUse">
<stop offset="0.477963" stop-color="#F8F9FC"/>
<stop offset="0.883379" stop-color="#BAC4D1"/>
</linearGradient>
<radialGradient id="paint1_radial_786_1196" cx="0" cy="0" r="1" gradientUnits="userSpaceOnUse" gradientTransform="translate(409.277 405.6) rotate(-16.6512) scale(457.171 885.594)">
<stop offset="0.380907" stop-color="#0140CF"/>
<stop offset="0.703351" stop-color="#45D0FE"/>
</radialGradient>
<radialGradient id="paint2_radial_786_1196" cx="0" cy="0" r="1" gradientUnits="userSpaceOnUse" gradientTransform="translate(409.277 405.6) rotate(-16.6512) scale(457.171 885.594)">
<stop offset="0.380907" stop-color="#0140CF"/>
<stop offset="0.703351" stop-color="#45D0FE"/>
</radialGradient>
<linearGradient id="paint3_linear_786_1196" x1="704.277" y1="203.1" x2="169.777" y2="431.1" gradientUnits="userSpaceOnUse">
<stop offset="0.10293" stop-color="#45D0FE"/>
<stop offset="0.666004" stop-color="#0053FE"/>
<stop offset="0.926749" stop-color="#007FFA"/>
</linearGradient>
<linearGradient id="paint4_linear_786_1196" x1="400.75" y1="722.295" x2="475.75" y2="722.295" gradientUnits="userSpaceOnUse">
<stop stop-color="#03C1FF"/>
<stop offset="0.798077" stop-color="#0142B0" stop-opacity="0.5"/>
</linearGradient>
</defs>
</svg>
